<svg aria-hidden="true" style="position:absolute" xmlns="http://www.w3.org/2000/svg" overflow="hidden"><defs><symbol id="fire" viewBox="0 0 64 32"><path d="M11.693 7.514a4.081 4.081 0 00-.544-.873c-.629-.798-.821-2.577-.823-2.594a.214.214 0 00-.373-.119c-.751.847-.435 2.155-.265 2.677.047.143.098.311.134.482.277 1.38-.258 2.005-.384 2.131-.122.034-.205.017-.282-.066-.265-.292-.352-1.25-.228-2.498a2.565 2.565 0 00-.017-.695C8.65 4.425 7.693 3.441 7.45 3.096c-.67-.998-.738-2.66-.74-2.675a.208.208 0 00-.117-.183.21.21 0 00-.215.015c-1.118.766-1.022 2.611-.866 3.642.036.239.107.482.228.789.433 1.099-.085 2.517-.09 2.53s-.009.023-.011.036c-.066.35-.177.559-.301.559a.156.156 0 01-.041-.006c-.151-.032-.23-.194-.233-.335-.009-1.82-1.82-2.432-1.839-2.438a.21.21 0 00-.226.064.212.212 0 00-.03.235c.021.045.09.241.043.934a8.068 8.068 0 01-.335 1.83 8.954 8.954 0 00-.358 2.822c.331 3.633 5.513 4.27 8.589 2.223a3.12 3.12 0 00.815-.762c1.135-1.579.467-3.723-.03-4.862zm-7.882 3.471a.213.213 0 01-.201.224h-.013a.212.212 0 01-.213-.201 7.699 7.699 0 01.009-.992.216.216 0 01.228-.198.214.214 0 01.198.228 7.066 7.066 0 00-.009.939zm.104-1.89a.213.213 0 01-.211.188c-.009 0-.017 0-.028-.002a.216.216 0 01-.186-.237l.102-.823a.216.216 0 01.239-.186.215.215 0 01.186.239l-.102.821zm6.335-5.963a.213.213 0 01-.178-.243c.013-.087.09-.53.3-.754a.213.213 0 11.312.292c-.089.095-.164.365-.189.527a.213.213 0 01-.243.178zM2.473 4.195c-.041-.159-.142-.42-.24-.506-.089-.078-.098-.212-.02-.301s.212-.098.301-.02c.23.202.35.636.372.721a.214.214 0 01-.414.106z"/></symbol></defs></svg>