<svg xmlns="http://www.w3.org/2000/svg" width="24" height="24" viewBox="0 0 819 1024"><path fill="#ff6b08" d="M654.831 171.699c-24.377 10.906-47.74 24.222-70.041 39.073-44.849 29.508-85.852 64.646-124.312 102.118-38.443 37.564-74.233 77.763-108.074 119.561-8.464 10.452-46.359 56.99-46.359 56.99L148.45 253.284 88.957 418.193 302.075 672.36c20.695-41.898 40.612-83.259 60.147-119.194 4.854-9.138 9.938-17.738 14.797-26.472 0 0 25.01-43.966 31.587-55.041 26.301-44.296 54.73-87.444 86.034-128.433 31.341-40.914 65.411-79.974 104.034-114.312 19.219-17.282 39.675-33.261 61.592-47.166 21.874-13.933 45.115-26.133 69.974-34.902-25.861 5.088-51.093 13.923-75.411 24.859z"/></svg>