<svg xmlns="http://www.w3.org/2000/svg" width="24" height="24" viewBox="0 0 819 1024"><path fill="#ff6b08" d="M660.335 424.334c-6.987-15.782-16.625-31.322-30.72-49.272-35.539-45.056-46.381-145.528-46.502-146.492-.666-6.11-5.797-10.822-12.028-10.822a12.07 12.07 0 00-9.044 4.063l-.011.012c-42.406 47.827-24.576 121.675-14.938 151.191 2.65 8.072 5.542 17.589 7.59 27.226 15.661 77.944-14.577 113.242-21.685 120.35-6.867 1.928-11.565.964-15.902-3.735-14.938-16.504-19.878-70.596-12.89-141.071 1.446-14.336 1.084-27.226-.964-39.273-14.734-86.618-68.765-142.191-82.522-161.672-37.828-56.38-41.683-150.227-41.803-151.07a11.814 11.814 0 00-6.557-10.33l-.069-.031a11.793 11.793 0 00-5.373-1.276c-2.541 0-4.897.793-6.833 2.145l.039-.026c-63.127 43.249-57.705 147.456-48.911 205.643 2.048 13.493 6.024 27.226 12.89 44.574 24.456 62.042-4.819 142.155-5.06 142.878s-.482 1.325-.602 2.048c-3.735 19.757-9.999 31.563-16.986 31.563a8.194 8.194 0 01-2.347-.377l.058.016c-8.553-1.807-13.011-10.963-13.131-18.914-.482-102.761-102.761-137.336-103.846-137.698a11.692 11.692 0 00-3.686-.584 11.897 11.897 0 00-9.07 4.182l-.014.016a11.87 11.87 0 00-2.968 7.873c0 1.962.474 3.813 1.313 5.445l-.031-.067c1.205 2.53 5.06 13.613 2.409 52.766-2.512 37.789-9.25 73.022-19.783 106.575l.869-3.212c-24.335 79.992-20.48 155.768-20.239 159.383 18.709 205.161 311.344 241.122 485.015 125.53 19.034-12.649 34.575-27.106 46.02-43.008 64.09-89.148 26.383-210.221-1.687-274.552zM215.197 620.339c.012.2.019.433.019.668 0 6.396-5.004 11.623-11.311 11.98l-.032.001h-.723c-6.385 0-11.686-4.939-12.047-11.324-1.084-17.589-.843-36.021.482-56.019.482-6.626 6.264-11.565 12.89-11.204 6.626.482 11.686 6.264 11.204 12.89-1.325 19.034-1.566 36.382-.482 53.007zm5.903-106.737c-.723 6.144-5.903 10.601-11.927 10.601-.482 0-.964 0-1.566-.12-6.505-.843-11.204-6.746-10.481-13.372l5.783-46.502c.843-6.505 6.746-11.204 13.493-10.481 6.626.843 11.324 6.867 10.481 13.493l-5.783 46.381zm357.725-336.739c-5.811-.927-10.199-5.903-10.199-11.904 0-.646.051-1.279.149-1.898l-.009.068c.759-4.891 5.108-29.949 16.914-42.55a12.018 12.018 0 018.788-3.807c6.653 0 12.047 5.394 12.047 12.047 0 3.19-1.24 6.091-3.265 8.247l.006-.006c-5 5.337-9.252 20.6-10.674 29.756-.931 5.807-5.905 10.191-11.903 10.191-.655 0-1.297-.052-1.923-.153l.069.009zm-439.188 60.006c-2.301-8.963-8.035-23.733-13.529-28.552-2.602-2.223-4.241-5.508-4.241-9.176 0-6.653 5.394-12.047 12.047-12.047a12 12 0 018.082 3.113l-.01-.009c12.987 11.372 19.757 35.9 20.998 40.683.24.898.378 1.93.378 2.994 0 6.656-5.396 12.051-12.051 12.051-5.592 0-10.295-3.809-11.655-8.974l-.019-.084z"/></svg>