<svg fill="#536da7" data-name="Layer 21" height="24" id="Layer_21" width="24" xmlns="http://www.w3.org/2000/svg"><path d="M21.547 7h-3.29a.743.743 0 00-.655.392s-1.312 2.416-1.734 3.23C14.734 12.813 14 12.126 14 11.11V7.604A1.104 1.104 0 0012.896 6.5h-2.474a1.982 1.982 0 00-1.751.813s1.256-.204 1.256 1.49c0 .419.022 1.626.041 2.64a.73.73 0 01-1.273.503 21.54 21.54 0 01-2.498-4.543.693.693 0 00-.63-.403h-2.99a.508.508 0 00-.48.685C3.005 10.175 6.916 18 11.38 18h1.879a.742.742 0 00.742-.742v-1.135a.73.73 0 011.229-.531l2.248 2.113a1.09 1.09 0 00.746.295h2.953c1.424 0 1.424-.988.647-1.753-.546-.538-2.518-2.617-2.518-2.617a1.019 1.019 0 01-.078-1.323c.637-.839 1.68-2.212 2.122-2.8.604-.804 1.698-2.507.198-2.507z"/></svg>