<!-- Generated by IcoMoon.io -->
<svg version="1.1" xmlns="http://www.w3.org/2000/svg" width="24" height="24" viewBox="0 0 819 1024">
<title></title>
<g id="icomoon-ignore">
</g>
<path fill="#ff6b08" d="M660.335 424.334c-6.987-15.782-16.625-31.322-30.72-49.272-35.539-45.056-46.381-145.528-46.502-146.492-0.666-6.11-5.797-10.822-12.028-10.822-3.597 0-6.828 1.571-9.044 4.063l-0.011 0.012c-42.406 47.827-24.576 121.675-14.938 151.191 2.65 8.072 5.542 17.589 7.59 27.226 15.661 77.944-14.577 113.242-21.685 120.35-6.867 1.928-11.565 0.964-15.902-3.735-14.938-16.504-19.878-70.596-12.89-141.071 1.446-14.336 1.084-27.226-0.964-39.273-14.734-86.618-68.765-142.191-82.522-161.672-37.828-56.38-41.683-150.227-41.803-151.070-0.099-4.537-2.743-8.434-6.557-10.33l-0.069-0.031c-1.564-0.804-3.414-1.276-5.373-1.276-2.541 0-4.897 0.793-6.833 2.145l0.039-0.026c-63.127 43.249-57.705 147.456-48.911 205.643 2.048 13.493 6.024 27.226 12.89 44.574 24.456 62.042-4.819 142.155-5.060 142.878s-0.482 1.325-0.602 2.048c-3.735 19.757-9.999 31.563-16.986 31.563-0.821-0.012-1.607-0.144-2.347-0.377l0.058 0.016c-8.553-1.807-13.011-10.963-13.131-18.914-0.482-102.761-102.761-137.336-103.846-137.698-1.101-0.37-2.369-0.584-3.686-0.584-3.631 0-6.883 1.622-9.070 4.182l-0.014 0.016c-1.843 2.089-2.968 4.85-2.968 7.873 0 1.962 0.474 3.813 1.313 5.445l-0.031-0.067c1.205 2.53 5.060 13.613 2.409 52.766-2.512 37.789-9.25 73.022-19.783 106.575l0.869-3.212c-24.335 79.992-20.48 155.768-20.239 159.383 18.709 205.161 311.344 241.122 485.015 125.53 19.034-12.649 34.575-27.106 46.020-43.008 64.090-89.148 26.383-210.221-1.687-274.552zM215.197 620.339c0.012 0.2 0.019 0.433 0.019 0.668 0 6.396-5.004 11.623-11.311 11.98l-0.032 0.001h-0.723c-6.385 0-11.686-4.939-12.047-11.324-1.084-17.589-0.843-36.021 0.482-56.019 0.482-6.626 6.264-11.565 12.89-11.204 6.626 0.482 11.686 6.264 11.204 12.89-1.325 19.034-1.566 36.382-0.482 53.007zM221.1 513.602c-0.723 6.144-5.903 10.601-11.927 10.601-0.482 0-0.964 0-1.566-0.12-6.505-0.843-11.204-6.746-10.481-13.372l5.783-46.502c0.843-6.505 6.746-11.204 13.493-10.481 6.626 0.843 11.324 6.867 10.481 13.493l-5.783 46.381zM578.825 176.863c-5.811-0.927-10.199-5.903-10.199-11.904 0-0.646 0.051-1.279 0.149-1.898l-0.009 0.068c0.759-4.891 5.108-29.949 16.914-42.55 2.204-2.346 5.325-3.807 8.788-3.807 6.653 0 12.047 5.394 12.047 12.047 0 3.19-1.24 6.091-3.265 8.247l0.006-0.006c-5 5.337-9.252 20.6-10.674 29.756-0.931 5.807-5.905 10.191-11.903 10.191-0.655 0-1.297-0.052-1.923-0.153l0.069 0.009zM139.637 236.869c-2.301-8.963-8.035-23.733-13.529-28.552-2.602-2.223-4.241-5.508-4.241-9.176 0-6.653 5.394-12.047 12.047-12.047 3.11 0 5.945 1.178 8.082 3.113l-0.010-0.009c12.987 11.372 19.757 35.9 20.998 40.683 0.24 0.898 0.378 1.93 0.378 2.994 0 6.656-5.396 12.051-12.051 12.051-5.592 0-10.295-3.809-11.655-8.974l-0.019-0.084z"></path>
</svg>
