<svg aria-hidden="true" style="position: absolute; width: ; height: ; overflow: hidden;" version="1.1" xmlns="http://www.w3.org/2000/svg" xmlns:xlink="http://www.w3.org/1999/xlink">
	<defs>
		<symbol id="fire" viewBox="0 0 64 32">
			<path d="M11.693 7.514c-0.124-0.279-0.294-0.555-0.544-0.873-0.629-0.798-0.821-2.577-0.823-2.594-0.009-0.085-0.068-0.156-0.147-0.181-0.081-0.026-0.169-0.002-0.226 0.062-0.751 0.847-0.435 2.155-0.265 2.677 0.047 0.143 0.098 0.311 0.134 0.482 0.277 1.38-0.258 2.005-0.384 2.131-0.122 0.034-0.205 0.017-0.282-0.066-0.265-0.292-0.352-1.25-0.228-2.498 0.026-0.254 0.019-0.482-0.017-0.695-0.261-1.534-1.218-2.518-1.461-2.863-0.67-0.998-0.738-2.66-0.74-2.675-0.002-0.079-0.047-0.149-0.117-0.183-0.068-0.034-0.151-0.030-0.215 0.015-1.118 0.766-1.022 2.611-0.866 3.642 0.036 0.239 0.107 0.482 0.228 0.789 0.433 1.099-0.085 2.517-0.090 2.53s-0.009 0.023-0.011 0.036c-0.066 0.35-0.177 0.559-0.301 0.559-0.013 0-0.026-0.002-0.041-0.006-0.151-0.032-0.23-0.194-0.233-0.335-0.009-1.82-1.82-2.432-1.839-2.438-0.081-0.026-0.171-0.002-0.226 0.064-0.058 0.066-0.068 0.158-0.030 0.235 0.021 0.045 0.090 0.241 0.043 0.934-0.041 0.623-0.154 1.239-0.335 1.83-0.431 1.417-0.363 2.758-0.358 2.822 0.331 3.633 5.513 4.27 8.589 2.223 0.337-0.224 0.612-0.48 0.815-0.762 1.135-1.579 0.467-3.723-0.030-4.862zM3.811 10.985c0.006 0.117-0.083 0.218-0.201 0.224h-0.013c-0.113 0-0.207-0.087-0.213-0.201-0.019-0.311-0.015-0.638 0.009-0.992 0.009-0.117 0.111-0.205 0.228-0.198 0.117 0.009 0.207 0.111 0.198 0.228-0.023 0.337-0.028 0.644-0.009 0.939zM3.915 9.095c-0.013 0.109-0.105 0.188-0.211 0.188-0.009 0-0.017 0-0.028-0.002-0.115-0.015-0.198-0.119-0.186-0.237l0.102-0.823c0.015-0.115 0.119-0.198 0.239-0.186 0.117 0.015 0.201 0.122 0.186 0.239l-0.102 0.821z"></path>
			<path d="M10.25 3.132c-0.116-0.018-0.196-0.127-0.178-0.243 0.013-0.087 0.090-0.53 0.3-0.754 0.081-0.086 0.215-0.091 0.302-0.010s0.090 0.216 0.010 0.302c-0.089 0.095-0.164 0.365-0.189 0.527-0.018 0.115-0.125 0.196-0.243 0.178z"></path>
			<path d="M2.473 4.195c-0.041-0.159-0.142-0.42-0.24-0.506-0.089-0.078-0.098-0.212-0.020-0.301s0.212-0.098 0.301-0.020c0.23 0.202 0.35 0.636 0.372 0.721 0.029 0.114-0.040 0.23-0.154 0.259-0.116 0.029-0.231-0.041-0.26-0.153z"></path>
		</symbol>
	</defs>
</svg>